PathFileType	4	(X/Y/Z)	Patient4_TMGait_0pt2_03_right_20.trc.trc
DataRate	CameraRate	NumFrames	NumMarkers	Units	OrigDataRate	OrigDataStartFrame	OrigNumFrames
48.275862068966	48.275862068966	6	33	mm	48.275862068966	106	       141
Frame#	Time	Sacral			L.Shoulder			Chest			R.Shoulder			Neck			R.ASIS			L.ASIS			R.Thigh.Superior			R.Thigh.Lateral			R.Thigh.Inferior			R.Patella			L.Thigh.Superior			L.Thigh.Lateral			L.Thigh.Inferior			L.Patella			L.Shank.Superior			L.Shank.Lateral			L.Shank.Inferior			R.Shank.Superior			R.Shank.Lateral			R.Shank.Inferior			R.Heel			R.Midfoot.Superior			R.Midfoot.Lateral			R.Toe			L.Heel			L.Midfoot.Lateral			L.Midfoot.Superior			L.Toe			L.Elbow			L.Wrist			R.Elbow			R.Wrist			
		X1	Y1	Z1	X2	Y2	Z2	X3	Y3	Z3	X4	Y4	Z4	X5	Y5	Z5	X6	Y6	Z6	X7	Y7	Z7	X8	Y8	Z8	X9	Y9	Z9	X10	Y10	Z10	X11	Y11	Z11	X12	Y12	Z12	X13	Y13	Z13	X14	Y14	Z14	X15	Y15	Z15	X16	Y16	Z16	X17	Y17	Z17	X18	Y18	Z18	X19	Y19	Z19	X20	Y20	Z20	X21	Y21	Z21	X22	Y22	Z22	X23	Y23	Z23	X24	Y24	Z24	X25	Y25	Z25	X26	Y26	Z26	X27	Y27	Z27	X28	Y28	Z28	X29	Y29	Z29	X30	Y30	Z30	X31	Y31	Z31	X32	Y32	Z32	X33	Y33	Z33	

106	45.125000000000	867.095112413331	990.570358334030	429.466340689588	1069.063542489390	1427.385670689797	276.206611275220	1154.119568878954	1347.656044352497	441.541987386638	1057.618522949643	1410.941768513803	611.434914042399	1026.278507173780	1479.944766971199	436.807628353613	1093.401471112689	929.457543967942	557.076202487259	1090.478667411681	949.802160944160	282.665053070673	1164.533846866848	743.244387341210	530.175745276675	1110.270975498098	630.166707546958	608.094394175848	1194.215421017543	577.722635925487	531.043191643319	1201.180586754111	467.806541356296	559.806104741230	1151.721997638454	743.100098373131	320.216391134833	1072.544369240521	605.887306783192	257.664572142802	1168.470182987029	549.067218381317	331.335830673475	1174.141258129841	474.823046406813	341.205473948004	1134.221703032954	398.806356742686	334.715756065350	1032.866932340733	297.503127507996	278.220657924580	1056.465314625073	182.568935605644	353.941894184065	1122.583269423757	399.188147649184	579.880315860744	1006.110979347460	372.360446602274	656.355078416477	979.259615662080	260.935546748892	617.697595288627	771.525228013080	219.638290176274	620.025881088416	935.970781279453	138.423671255114	642.446769045349	830.557584988529	150.777375859429	685.438962717921	989.396815955171	29.479148332867	657.008961402525	906.194944364390	39.399130525148	388.001947443759	982.411994830110	36.111510125509	309.623486008514	1065.981363346279	95.675587352560	340.338464874676	1194.506178379570	41.387417789984	313.698420020237	1171.843511637203	1114.506561066917	112.287820784442	1398.772893982872	983.508075060047	137.155937487014	988.741119823522	1059.819484458180	706.809920309545	1031.966902942548	800.643982600753	710.502339326325	
107	45.145714285714	866.257356921147	991.391783561626	426.269313690315	1072.123031661083	1428.391935931692	275.945744853504	1153.872551715127	1348.359587966026	442.717927781629	1054.005465694199	1411.669569294761	610.780573208269	1026.418580394599	1480.557906025576	435.939071881930	1091.217725320849	930.529948340770	556.534983959351	1091.482942246952	950.430290899151	282.056351801627	1166.740557767271	747.867237250313	528.994006019038	1115.162078556471	633.327693732238	606.944587261533	1200.750997606730	582.763934208096	530.229631278866	1209.595890672453	472.248792834906	559.146580445978	1150.753233007579	742.410134594084	319.170412057592	1070.317919247304	605.942961734641	256.504377284629	1165.327247424472	548.439420063750	330.493743015414	1170.415261378719	474.455651123215	340.605936717132	1130.358650413388	398.586131973139	334.186760203979	1029.183419693592	297.239674657492	277.544470844305	1052.340587924634	182.445455425631	353.624028227494	1130.705293471063	402.987429869004	578.631456184102	1013.024595213223	376.777730170614	653.847362225760	986.478807944055	264.983610976399	615.526400023477	778.806402014413	224.915618883959	615.148231564366	942.805504789004	142.750568504124	640.559226778701	836.565805754410	156.093272461663	682.109162121227	995.341138772152	29.983357830414	657.305869927192	901.973035345915	39.389919450658	387.852735838584	978.233358895730	36.056658404380	309.467463516252	1061.785054694242	95.620578683786	340.172947306995	1190.348110775328	41.362814689837	313.621529566055	1181.971402653240	1120.554777136380	109.222757217818	1416.562319832936	1004.601487412507	135.230461715911	965.840288849967	1065.502620076013	704.333394680687	990.612907768843	803.844694641651	708.658610873602	
108	45.166428571429	865.657524033230	992.978018260984	423.378189664002	1075.292363022918	1430.012784393932	276.015356154697	1153.637002339278	1349.834470439457	444.242516712261	1050.378311277044	1413.395984052021	610.276968631337	1026.582640010659	1481.828222350898	435.311011563408	1088.991875819939	932.348799407697	556.564729007955	1092.809452759836	951.617904887894	282.099247546935	1168.080014834677	752.777996787795	528.729809734179	1118.604410017842	637.025394139874	606.648509175452	1205.583302857289	588.058554011525	530.344528219530	1216.178240444201	477.275275545112	559.364861273251	1149.471016606893	741.952469067902	318.863538905724	1067.521809242750	606.493385232504	255.773998605506	1161.329423369473	548.031211287931	330.142716968356	1165.650718158362	474.392252230480	340.434264902206	1125.651709219780	398.792575784515	333.943307630038	1024.912528900347	297.232115605983	277.059508993578	1047.935992465201	182.559704533485	353.392633620654	1137.562351078368	407.085782044453	578.182999452094	1019.124701591362	380.211042097301	652.137662756477	994.057357051325	267.948978496861	613.950186177164	787.012090612625	225.954184150124	610.983519256442	951.553414407188	146.109738247512	639.135010173299	844.652004110736	158.512623442183	679.437482533558	1005.139573558679	31.250181545266	658.033853280227	897.737440460832	39.400034566119	387.705544359341	974.049594108329	36.023611397506	309.327818867225	1057.589347054020	95.590859015782	340.006293518757	1186.181154983276	41.336214034090	313.550591606944	1191.657978947140	1127.256615571281	106.720926696181	1432.760317058262	1026.646863304731	133.935253874496	943.957429465028	1072.987311720242	701.639755200891	952.355096458852	810.394205323596	705.980911660161	
109	45.187142857143	865.263454401868	995.223234153720	420.774506005323	1078.582532151437	1432.113232815918	276.390683188954	1153.426617503661	1351.936515487372	446.075781480890	1046.810780928612	1415.986118894317	609.903286243515	1026.798946198149	1483.639543820822	434.885946936706	1086.667275290512	934.787559636770	557.180475819519	1094.415023328009	953.237201923011	282.810725965520	1168.447727620548	757.705141095414	529.374657797267	1120.454731447040	641.016586102408	607.185850220242	1208.511427774234	593.298199657522	531.322472090895	1220.753667006931	482.643568989607	560.407370067597	1147.872341408711	741.695143859743	319.360316298451	1064.260994060770	607.475880510076	255.483682460746	1156.581944674901	547.821230393398	330.319460442044	1159.974965983685	474.591290647108	340.706689697684	1120.218720287960	399.371798615557	333.988419164518	1020.130118439652	297.455497831647	276.774405602792	1043.289421736525	182.878318060397	353.258183031260	1143.085779440291	411.240341579530	578.545114254197	1024.530817670061	382.311147796512	651.371079421161	1002.179939863746	269.544654312973	613.116999356650	796.510173921680	222.355805048944	607.892171609945	962.493386965104	148.194982743034	638.350276116170	855.214202709993	157.682750570263	677.699328165397	1019.119208065918	33.279359210314	659.264353599187	893.491532017884	39.422695856221	387.563467793563	969.860730301011	36.008657571628	309.205236199605	1053.394249274735	95.584362476156	339.848298974570	1182.005817071674	41.309585859875	313.489524820261	1200.959176285729	1134.427210085131	104.817787801326	1447.415753004570	1049.318088175221	133.337794844167	923.488793119823	1081.891735761698	698.710907017984	917.685190885270	819.418922405719	702.603898468528	
110	45.207857142857	865.028268333058	997.968599136581	418.461832767711	1081.996845753243	1434.507207330574	277.049382797220	1153.255136392124	1354.466744939293	448.177605437414	1043.379884352929	1419.243087597329	609.648098579567	1027.098651175579	1485.829813112929	434.634016548394	1084.201029120730	937.660907135649	558.382994794898	1096.219471980899	955.120465391260	284.191172065004	1167.788687448035	762.360637776167	530.881919583250	1120.640055923079	645.029000525090	608.501466523318	1209.422307081999	598.170816035409	533.066550536532	1223.237360035970	488.095093369587	562.166950763220	1145.964680639490	741.585325956709	320.669133183859	1060.655154957953	608.793457242545	255.620865021835	1151.236139101803	547.769186444117	331.015915990025	1153.573109117180	474.988830253162	341.399525145874	1114.223590924104	400.241039308685	334.301008172220	1014.939996767960	297.866688729288	276.685540687129	1038.453605066884	183.352191980049	353.223235362752	1147.273747599598	415.215038605876	579.672832690230	1029.426297260572	382.818790581107	651.628841854418	1011.025312174531	269.600842798394	613.113278360000	807.697832251433	214.101375220837	606.138533480551	975.798829074167	148.823666524679	638.315851676916	868.560199413971	153.528271504418	677.073091983331	1037.305233620230	36.003773312305	660.995343677962	889.239963902288	39.450054233509	387.430483392529	965.666691936106	36.006828463216	309.099621695043	1049.198704616627	95.596683962831	339.708143174808	1177.822757574463	41.286157498383	313.440997526621	1209.940832616892	1141.842303238630	103.540843784718	1460.612398012990	1072.247618283334	133.470787067562	904.760867635045	1091.748903074330	695.567407398594	886.947412271398	830.022924575515	698.670600316595	
111	45.228571428571	864.897876914626	1001.018959977413	416.467087767223	1085.526946769704	1436.979233583466	277.975972559360	1153.135618837661	1357.194579936870	450.513275025502	1040.160395152073	1422.928928393928	609.514384869799	1027.511459618093	1488.209954915524	434.540316665120	1081.572879685455	940.744359788438	560.154811436056	1098.116002651852	957.080900954111	286.221159993909	1166.100274029993	766.464759816398	533.178069948835	1119.153575074095	648.786639068314	610.514781511287	1208.297454693068	602.389759397079	535.466403960498	1223.628613355096	493.376208714834	564.500414851813	1143.773115191706	741.556377256185	322.739067860183	1056.834615621392	610.324850877389	256.153961768643	1145.482898883200	547.820206206235	332.184220849843	1146.678267268498	475.504650407529	342.456779311192	1107.865321030112	401.296053905393	334.843237763318	1009.469036305614	298.409855392739	276.779920336396	1033.493352421027	183.921529218427	353.283569449922	1150.171732873976	418.803848704630	581.473287603002	1034.008702240466	381.603403873771	652.911511118969	1020.713053876203	268.091406589071	613.947526283559	820.906441410689	201.558112566384	605.855465832494	991.484648443406	147.964638385663	639.046077626310	884.835467106805	146.258536044915	677.605868147142	1059.394541899962	39.315653657435	663.118100027292	884.987777672621	39.474562171323	387.310983011503	961.467449227164	36.012760283424	309.010256916402	1045.000963972326	95.621785286227	339.593539089337	1173.632820228808	41.269291029026	313.406269920306	1218.663766240099	1149.255738821177	102.911795651847	1472.453463807141	1095.045585730480	134.331477064592	888.013165525819	1102.048311667554	692.271705303329	860.345202455506	841.345892223291	694.331249878717	
